<svg width="100" height="24" viewBox="0 0 100 24" fill="none" xmlns="http://www.w3.org/2000/svg">
<path d="M8.95822 0H14.5738L23.5655 24H18.585L16.6797 18.8524H6.78552L4.88022 24H0L8.95822 0ZM11.6992 5.44847L8.32312 14.6741H15.1086L11.6992 5.44847Z" fill="#E1DAD2"/>
<path d="M27.8173 23.6129C27.5593 23.3548 27.4302 23.0381 27.4302 22.6627C27.4302 22.2873 27.5593 21.9647 27.8173 21.6949C28.0754 21.425 28.3922 21.2901 28.7676 21.2901C29.1429 21.2901 29.4597 21.425 29.7178 21.6949C29.9876 21.9647 30.1225 22.2873 30.1225 22.6627C30.1225 23.0381 29.9876 23.3548 29.7178 23.6129C29.4597 23.871 29.1429 24 28.7676 24C28.3922 24 28.0754 23.871 27.8173 23.6129ZM31.0375 22.6627C31.0375 22.2755 31.1607 21.9529 31.407 21.6949C31.6651 21.425 31.9818 21.2901 32.3572 21.2901C32.7326 21.2901 33.0552 21.425 33.325 21.6949C33.5949 21.9647 33.7298 22.2873 33.7298 22.6627C33.7298 23.0381 33.5949 23.3548 33.325 23.6129C33.0552 23.871 32.7326 24 32.3572 24C31.9818 24 31.6651 23.871 31.407 23.6129C31.1607 23.3548 31.0375 23.0381 31.0375 22.6627ZM35.0143 23.6129C34.7562 23.3548 34.6272 23.0381 34.6272 22.6627C34.6272 22.2873 34.7562 21.9647 35.0143 21.6949C35.2724 21.425 35.5891 21.2901 35.9645 21.2901C36.3399 21.2901 36.6625 21.425 36.9323 21.6949C37.2021 21.9647 37.337 22.2873 37.337 22.6627C37.337 23.0381 37.2021 23.3548 36.9323 23.6129C36.6625 23.871 36.3399 24 35.9645 24C35.5891 24 35.2724 23.871 35.0143 23.6129ZM38.6216 23.6129C38.3635 23.3548 38.2345 23.0381 38.2345 22.6627C38.2345 22.2873 38.3635 21.9647 38.6216 21.6949C38.8797 21.425 39.1964 21.2901 39.5718 21.2901C39.9472 21.2901 40.2698 21.425 40.5396 21.6949C40.8094 21.9647 40.9443 22.2873 40.9443 22.6627C40.9443 23.0381 40.8094 23.3548 40.5396 23.6129C40.2698 23.871 39.9472 24 39.5718 24C39.1964 24 38.8797 23.871 38.6216 23.6129ZM24.2101 20.0056C23.952 19.7475 23.8229 19.4308 23.8229 19.0554C23.8229 18.68 23.952 18.3633 24.2101 18.1052C24.4681 17.8354 24.7849 17.7005 25.1603 17.7005C25.5357 17.7005 25.8583 17.8354 26.1281 18.1052C26.3979 18.3633 26.5328 18.68 26.5328 19.0554C26.5328 19.4308 26.3979 19.7475 26.1281 20.0056C25.8583 20.2637 25.5357 20.3927 25.1603 20.3927C24.7849 20.3927 24.4681 20.2637 24.2101 20.0056ZM24.2101 16.4159C23.952 16.1578 23.8229 15.8411 23.8229 15.4657C23.8229 15.0903 23.952 14.7677 24.2101 14.4979C24.4681 14.2281 24.7849 14.0932 25.1603 14.0932C25.5357 14.0932 25.8583 14.2281 26.1281 14.4979C26.3979 14.7677 26.5328 15.0903 26.5328 15.4657C26.5328 15.8411 26.3979 16.1578 26.1281 16.4159C25.87 16.6623 25.5474 16.7854 25.1603 16.7854C24.7849 16.7854 24.4681 16.6623 24.2101 16.4159ZM27.8173 16.4159C27.5593 16.1578 27.4302 15.8411 27.4302 15.4657C27.4302 15.0903 27.5593 14.7677 27.8173 14.4979C28.0754 14.2281 28.3922 14.0932 28.7676 14.0932C29.1429 14.0932 29.4597 14.2281 29.7178 14.4979C29.9876 14.7677 30.1225 15.0903 30.1225 15.4657C30.1225 15.8411 29.9876 16.1578 29.7178 16.4159C29.4597 16.6623 29.1429 16.7854 28.7676 16.7854C28.3922 16.7854 28.0754 16.6623 27.8173 16.4159ZM31.0375 15.4657C31.0375 15.0786 31.1607 14.756 31.407 14.4979C31.6651 14.2281 31.9818 14.0932 32.3572 14.0932C32.7326 14.0932 33.0552 14.2281 33.325 14.4979C33.5949 14.7677 33.7298 15.0903 33.7298 15.4657C33.7298 15.8411 33.5949 16.1578 33.325 16.4159C33.067 16.6623 32.7444 16.7854 32.3572 16.7854C31.9818 16.7854 31.6651 16.6623 31.407 16.4159C31.1607 16.1578 31.0375 15.8411 31.0375 15.4657ZM35.0143 16.4159C34.7562 16.1578 34.6272 15.8411 34.6272 15.4657C34.6272 15.0903 34.7562 14.7677 35.0143 14.4979C35.2724 14.2281 35.5891 14.0932 35.9645 14.0932C36.3399 14.0932 36.6625 14.2281 36.9323 14.4979C37.2021 14.7677 37.337 15.0903 37.337 15.4657C37.337 15.8411 37.2021 16.1578 36.9323 16.4159C36.6742 16.6623 36.3516 16.7854 35.9645 16.7854C35.5891 16.7854 35.2724 16.6623 35.0143 16.4159ZM38.6216 16.4159C38.3635 16.1578 38.2345 15.8411 38.2345 15.4657C38.2345 15.0903 38.3635 14.7677 38.6216 14.4979C38.8797 14.2281 39.1964 14.0932 39.5718 14.0932C39.9472 14.0932 40.2698 14.2281 40.5396 14.4979C40.8094 14.7677 40.9443 15.0903 40.9443 15.4657C40.9443 15.8411 40.8094 16.1578 40.5396 16.4159C40.2815 16.6623 39.9589 16.7854 39.5718 16.7854C39.1964 16.7854 38.8797 16.6623 38.6216 16.4159ZM24.2101 12.8086C23.952 12.5506 23.8229 12.2338 23.8229 11.8584C23.8229 11.483 23.952 11.1604 24.2101 10.8906C24.4681 10.6208 24.7849 10.4859 25.1603 10.4859C25.5357 10.4859 25.8583 10.6208 26.1281 10.8906C26.3979 11.1604 26.5328 11.483 26.5328 11.8584C26.5328 12.2338 26.3979 12.5506 26.1281 12.8086C25.8583 13.0667 25.5357 13.1958 25.1603 13.1958C24.7849 13.1958 24.4681 13.0667 24.2101 12.8086ZM38.6216 12.8086C38.3635 12.5506 38.2345 12.2338 38.2345 11.8584C38.2345 11.483 38.3635 11.1604 38.6216 10.8906C38.8797 10.6208 39.1964 10.4859 39.5718 10.4859C39.9472 10.4859 40.2698 10.6208 40.5396 10.8906C40.8094 11.1604 40.9443 11.483 40.9443 11.8584C40.9443 12.2338 40.8094 12.5506 40.5396 12.8086C40.2698 13.0667 39.9472 13.1958 39.5718 13.1958C39.1964 13.1958 38.8797 13.0667 38.6216 12.8086ZM27.8173 9.20136C27.5593 8.94327 27.4302 8.62654 27.4302 8.25115C27.4302 7.87575 27.5593 7.55315 27.8173 7.28334C28.0754 7.01353 28.3922 6.87862 28.7676 6.87862C29.1429 6.87862 29.4597 7.01353 29.7178 7.28334C29.9876 7.55315 30.1225 7.87575 30.1225 8.25115C30.1225 8.62654 29.9876 8.94327 29.7178 9.20136C29.4597 9.45944 29.1429 9.58848 28.7676 9.58848C28.3922 9.58848 28.0754 9.45944 27.8173 9.20136ZM31.0375 8.25115C31.0375 7.86402 31.1607 7.54142 31.407 7.28334C31.6651 7.01353 31.9818 6.87862 32.3572 6.87862C32.7326 6.87862 33.0552 7.01353 33.325 7.28334C33.5949 7.55315 33.7298 7.87575 33.7298 8.25115C33.7298 8.62654 33.5949 8.94327 33.325 9.20136C33.0552 9.45944 32.7326 9.58848 32.3572 9.58848C31.9818 9.58848 31.6651 9.45944 31.407 9.20136C31.1607 8.94327 31.0375 8.62654 31.0375 8.25115ZM35.0143 9.20136C34.7562 8.94327 34.6272 8.62654 34.6272 8.25115C34.6272 7.87575 34.7562 7.55315 35.0143 7.28334C35.2724 7.01353 35.5891 6.87862 35.9645 6.87862C36.3399 6.87862 36.6625 7.01353 36.9323 7.28334C37.2021 7.55315 37.337 7.87575 37.337 8.25115C37.337 8.62654 37.2021 8.94327 36.9323 9.20136C36.6625 9.45944 36.3399 9.58848 35.9645 9.58848C35.5891 9.58848 35.2724 9.45944 35.0143 9.20136Z" fill="#E1DAD2"/>
<path d="M76.8144 0H70.9638L70.0166 4.43752H75.8671L76.8144 0Z" fill="#3B3439"/>
<path d="M84.4012 10.3213H90.3011L91.1819 6.26601H85.282L86.5449 0.316267H86.5444L86.6114 0.000526428H80.778L80.3427 2.05043C80.3427 2.05043 80.3427 2.05043 80.3433 2.05043L79.4486 6.26601H62.6795L51.7267 13.1968L54.5523 0.000526428H48.7022L43.6 24H49.4667L50.9789 16.82L58.8735 24H71.7121L74.6095 10.3219H78.5678L77.0224 17.6847C76.8669 18.4384 76.787 19.1165 76.7811 19.7201C76.7758 20.3242 76.8535 20.8614 77.0138 21.3331C77.1746 21.8038 77.4153 22.2026 77.7369 22.5296C78.058 22.856 78.4654 23.1305 78.9586 23.3519C79.4512 23.5738 80.0356 23.7368 80.7115 23.8419C81.387 23.9475 82.1514 24 83.0053 24H87.3099L88.2073 19.845H85.4814C84.8387 19.845 84.3235 19.8091 83.9359 19.7372C83.5478 19.6649 83.2626 19.5293 83.0804 19.3298C82.897 19.1304 82.8059 18.8479 82.8059 18.4823C82.8059 18.1167 82.8611 17.6514 82.9721 17.0864L84.4012 10.3219V10.3213ZM65.9505 23.5819L56.6633 14.992L69.4955 6.8455L65.9505 23.5819Z" fill="#3B3439"/>
<path d="M96.56 7.6H95.92V4.4H97.136L97.904 7.06667H98.032L98.8 4.4H100V7.6H99.36V4.91892H99.232L98.464 7.6H97.472L96.688 4.91892H96.56V7.6ZM94.24 7.6H93.6V4.91892H92.4V4.4H95.44V4.91892H94.24V7.6Z" fill="#3B3439"/>
</svg>
